<?xml version="1.0" encoding="UTF-8"?>
<svg xmlns="http://www.w3.org/2000/svg" xmlns:xlink="http://www.w3.org/1999/xlink" viewBox="0 0 24 24" width="24px" height="24px">
<g id="surface4451741">
<path style=" stroke:none;fill-rule:nonzero;fill:rgb(87.843138%,76.47059%,98.823529%);fill-opacity:1;" d="M 18 2.503906 C 17.101562 2.503906 16.207031 2.84375 15.527344 3.527344 L 4.457031 14.59375 C 4.246094 14.800781 4.09375 15.0625 4.011719 15.351562 L 2.53125 20.542969 C 2.453125 20.804688 2.527344 21.085938 2.71875 21.28125 C 2.914062 21.472656 3.195312 21.546875 3.457031 21.46875 L 8.652344 19.988281 C 8.652344 19.988281 8.652344 19.988281 8.652344 19.984375 C 8.9375 19.90625 9.199219 19.753906 9.40625 19.542969 L 20.472656 8.472656 C 21.835938 7.113281 21.835938 4.886719 20.472656 3.527344 C 19.792969 2.84375 18.898438 2.503906 18 2.503906 Z M 18 3.996094 C 18.511719 3.996094 19.019531 4.191406 19.414062 4.585938 C 20.203125 5.375 20.203125 6.625 19.414062 7.414062 L 18.445312 8.382812 L 15.617188 5.554688 L 16.585938 4.585938 C 16.980469 4.191406 17.488281 3.996094 18 3.996094 Z M 14.554688 6.617188 L 17.382812 9.445312 L 8.347656 18.480469 C 8.316406 18.511719 8.28125 18.53125 8.238281 18.542969 L 4.339844 19.65625 L 5.453125 15.761719 C 5.453125 15.761719 5.453125 15.761719 5.453125 15.757812 C 5.464844 15.71875 5.488281 15.683594 5.519531 15.652344 Z M 14.554688 6.617188 "/>
</g>
</svg>
