<svg xmlns="http://www.w3.org/2000/svg" x="0px" y="0px" width="24" height="24"
viewBox="0 0 172 172"
style=" fill:#000000;"><g fill="none" fill-rule="nonzero" stroke="none" stroke-width="1" stroke-linecap="butt" stroke-linejoin="miter" stroke-miterlimit="10" stroke-dasharray="" stroke-dashoffset="0" font-family="none" font-weight="none" font-size="none" text-anchor="none" style="mix-blend-mode: normal"><path d="M0,172v-172h172v172z" fill="none"></path><g fill="#e0c3fc"><path d="M41.20833,0c-22.69508,0 -41.20833,18.51327 -41.20833,41.20833c0,22.69506 18.51325,41.20833 41.20833,41.20833c22.69508,0 41.20833,-18.51327 41.20833,-41.20833c0,-22.69506 -18.51325,-41.20833 -41.20833,-41.20833zM41.20833,10.75c16.88535,0 30.45833,13.57299 30.45833,30.45833c0,16.88534 -13.57298,30.45833 -30.45833,30.45833c-16.88535,0 -30.45833,-13.57299 -30.45833,-30.45833c0,-16.88534 13.57298,-30.45833 30.45833,-30.45833zM41.12435,17.83968c-2.96578,0.04633 -5.33356,2.48615 -5.29101,5.45199v17.91667c0.00027,1.42544 0.5667,2.79242 1.57471,3.80029l7.16667,7.16667c1.34815,1.40412 3.35005,1.96971 5.23364,1.47866c1.88359,-0.49105 3.35456,-1.96202 3.84561,-3.84561c0.49105,-1.88359 -0.07455,-3.88549 -1.47866,-5.23364l-5.59196,-5.59196v-15.69108c0.02085,-1.45347 -0.54782,-2.85342 -1.57634,-3.88062c-1.02852,-1.0272 -2.4292,-1.59408 -3.88264,-1.57136zM85.35612,21.5c2.69467,6.02358 4.22722,12.68142 4.22722,19.70833c0,3.06375 -0.31617,6.05225 -0.86084,8.95833h61.77751v-5.375c0,-12.84267 -10.449,-23.29167 -23.29167,-23.29167zM85.35612,60.91667c-7.55008,16.88467 -24.45737,28.66667 -44.14778,28.66667c-7.02692,0 -13.68475,-1.53255 -19.70833,-4.22722v41.85222c0,12.84267 10.449,23.29167 23.29167,23.29167h82.41667c12.84267,0 23.29167,-10.449 23.29167,-23.29167v-66.29167zM86,78.83333c4.94858,0 8.95833,4.00975 8.95833,8.95833c0,4.94858 -4.00975,8.95833 -8.95833,8.95833c-4.94858,0 -8.95833,-4.00975 -8.95833,-8.95833c0,-4.94858 4.00975,-8.95833 8.95833,-8.95833zM116.45833,78.83333c4.94858,0 8.95833,4.00975 8.95833,8.95833c0,4.94858 -4.00975,8.95833 -8.95833,8.95833c-4.94858,0 -8.95833,-4.00975 -8.95833,-8.95833c0,-4.94858 4.00975,-8.95833 8.95833,-8.95833zM55.54167,111.08333c4.94858,0 8.95833,4.00975 8.95833,8.95833c0,4.94858 -4.00975,8.95833 -8.95833,8.95833c-4.94858,0 -8.95833,-4.00975 -8.95833,-8.95833c0,-4.94858 4.00975,-8.95833 8.95833,-8.95833zM86,111.08333c4.94858,0 8.95833,4.00975 8.95833,8.95833c0,4.94858 -4.00975,8.95833 -8.95833,8.95833c-4.94858,0 -8.95833,-4.00975 -8.95833,-8.95833c0,-4.94858 4.00975,-8.95833 8.95833,-8.95833z"></path></g></g></svg>